<svg width="395" height="246" viewBox="0 0 395 246" fill="none" xmlns="http://www.w3.org/2000/svg">
<g opacity="0.2" clip-path="url(#clip0_2046_410)">
<path d="M362.775 111.124C361.713 109.714 360.29 108.616 358.657 107.945C357.024 107.274 355.24 107.055 353.493 107.311C320.319 112.17 289.369 126.584 262.007 149.642C261.317 147.236 260.478 144.875 259.495 142.573C257.801 138.382 256.049 134.049 256.879 130.961C257.519 128.578 260.845 125.945 264.061 123.4C268.05 120.243 272.57 116.665 274.614 111.667C276.439 107.204 275.757 102.088 275.097 97.1406C274.704 94.7129 274.493 92.2595 274.463 89.8006C274.492 88.4319 274.145 87.0815 273.459 85.8967C272.774 84.7118 271.776 83.7381 270.574 83.0819C269.364 82.4115 267.993 82.0863 266.61 82.1418C265.228 82.1972 263.887 82.6311 262.734 83.3963C238.309 99.5857 220.376 123.784 209.99 154.25C199.603 123.79 181.687 99.5834 157.266 83.3963C156.113 82.6308 154.772 82.1967 153.389 82.1413C152.006 82.0859 150.635 82.4115 149.425 83.0824C148.223 83.7388 147.226 84.7124 146.54 85.8971C145.854 87.0818 145.507 88.4321 145.536 89.8006C145.506 92.2595 145.294 94.7128 144.903 97.1406C144.243 102.088 143.56 107.203 145.385 111.666C147.428 116.664 151.95 120.243 155.939 123.4C159.155 125.945 162.481 128.577 163.121 130.96C163.951 134.048 162.199 138.382 160.505 142.573C159.522 144.875 158.683 147.236 157.993 149.642C130.63 126.583 99.6806 112.17 66.5061 107.311C64.7598 107.056 62.9771 107.275 61.3445 107.946C59.712 108.616 58.2897 109.713 57.2264 111.122C56.1632 112.53 55.4981 114.199 55.3008 115.952C55.1034 117.706 55.3811 119.481 56.1048 121.09C57.2742 123.839 58.3045 126.646 59.1917 129.498C61.3059 135.895 63.4917 142.51 68.1517 146.688C73.4198 151.411 80.7117 153.023 87.7626 154.583C93.9105 155.943 99.7172 157.228 102.363 160.279C105.68 164.104 106.142 170.922 106.589 177.516C107.036 184.118 107.499 190.945 110.841 196.041C114.824 202.111 121.813 205.804 127.979 209.062C133.438 211.948 138.594 214.672 140.213 218.108C142.682 223.348 141.103 230.434 139.576 237.288C138.77 240.557 138.182 243.876 137.816 247.222H128.176C126.983 247.222 125.838 247.696 124.994 248.54C124.15 249.384 123.676 250.529 123.676 251.722V270.187C123.665 305.871 129.483 341.317 140.902 375.124L146.968 393.101H139.216C138.022 393.101 136.878 393.575 136.034 394.419C135.19 395.263 134.716 396.407 134.716 397.601V425.364C134.716 426.558 135.19 427.703 136.034 428.546C136.878 429.39 138.022 429.864 139.216 429.864H280.784C281.978 429.864 283.122 429.39 283.966 428.546C284.81 427.703 285.284 426.558 285.284 425.364V397.601C285.284 396.407 284.81 395.263 283.966 394.419C283.122 393.575 281.978 393.101 280.784 393.101H273.033L279.099 375.124C290.517 341.317 296.336 305.871 296.324 270.187V251.723C296.324 250.529 295.85 249.385 295.006 248.541C294.162 247.697 293.018 247.223 291.824 247.223H282.184C281.819 243.876 281.231 240.557 280.424 237.288C278.898 230.435 277.319 223.348 279.787 218.108C281.407 214.672 286.563 211.947 292.022 209.063C298.188 205.804 305.176 202.111 309.16 196.041C312.502 190.945 312.965 184.118 313.411 177.516C313.859 170.922 314.32 164.105 317.637 160.279C320.283 157.228 326.089 155.943 332.238 154.584C339.289 153.024 346.58 151.411 351.848 146.688C356.508 142.51 358.694 135.895 360.808 129.498C361.695 126.646 362.726 123.84 363.895 121.091C364.619 119.482 364.898 117.708 364.701 115.954C364.504 114.201 363.839 112.532 362.775 111.124ZM265.527 92.3774C265.649 94.3818 265.916 96.3794 266.176 98.331C266.68 102.109 267.201 106.017 266.284 108.26C265.134 111.073 261.749 113.752 258.476 116.343C254.112 119.796 249.601 123.368 248.187 128.625C246.574 134.625 249.006 140.64 251.15 145.946C252.553 149.415 254.003 153.003 253.702 155.322C253.588 156.102 253.378 156.865 253.079 157.595C241.407 168.639 230.818 180.773 221.454 193.832C217.262 199.637 213.458 205.368 210.004 210.921C209.659 210.366 209.293 209.801 208.941 209.243C209.371 200.48 210.351 191.753 211.876 183.114C219.098 142.599 237.141 112.087 265.527 92.3774ZM166.297 155.322C165.997 153.003 167.447 149.416 168.849 145.947C170.994 140.64 173.426 134.625 171.813 128.625C170.4 123.368 165.888 119.796 161.524 116.343C158.25 113.753 154.866 111.073 153.715 108.26C152.798 106.017 153.319 102.11 153.824 98.331C154.084 96.3794 154.351 94.3818 154.473 92.3764C179.766 109.94 196.843 136.093 205.373 170.254C204.489 173.94 203.703 177.7 203.015 181.535C202.055 186.92 201.352 192.122 200.838 197.069C200.083 195.992 199.327 194.914 198.545 193.832C189.182 180.773 178.592 168.639 166.92 157.594C166.621 156.865 166.412 156.102 166.297 155.322ZM148.354 214.272C145.454 208.119 138.708 204.553 132.184 201.106C126.724 198.22 121.078 195.237 118.366 191.104C116.318 187.982 115.954 182.603 115.568 176.908C115.046 169.211 114.456 160.488 109.162 154.383C104.567 149.084 97.0127 147.412 89.7065 145.796C83.7886 144.487 77.6694 143.133 74.1597 139.987C71.2851 137.41 69.562 132.196 67.7378 126.675C66.7562 123.524 65.6124 120.427 64.311 117.395C64.2503 117.257 64.2275 117.105 64.245 116.956C64.2625 116.806 64.3196 116.664 64.4105 116.544C64.5013 116.424 64.6226 116.33 64.7618 116.273C64.901 116.215 65.053 116.196 65.2021 116.217C92.1294 120.16 117.436 130.587 140.42 147.209C158.905 160.576 175.955 177.964 191.096 198.889C202.023 214.087 211.514 230.268 219.445 247.223H146.866C147.226 244.54 147.725 241.877 148.361 239.246C150.13 231.302 152.136 222.298 148.354 214.272ZM276.284 420.864H143.715V402.101H276.284L276.284 420.864ZM287.324 270.187C287.336 304.892 281.677 339.366 270.572 372.247L263.535 393.101H156.465L149.429 372.247C138.323 339.367 132.664 304.893 132.675 270.187V256.223H287.324L287.324 270.187ZM355.69 117.394C354.388 120.426 353.244 123.524 352.263 126.674C350.439 132.195 348.715 137.41 345.84 139.987C342.33 143.133 336.211 144.487 330.293 145.796C322.988 147.413 315.433 149.084 310.838 154.383C305.544 160.488 304.953 169.211 304.432 176.908C304.047 182.603 303.683 187.982 301.634 191.104C298.922 195.237 293.277 198.22 287.817 201.106C281.292 204.554 274.546 208.119 271.647 214.273C267.864 222.298 269.87 231.302 271.64 239.246C272.276 241.877 272.775 244.539 273.134 247.223H229.398C225.939 239.56 221.264 230.084 215.237 219.653C219.249 212.958 223.787 205.96 228.903 198.889C244.046 177.963 261.095 160.575 279.579 147.208C302.563 130.587 327.87 120.16 354.798 116.216C354.947 116.195 355.099 116.215 355.238 116.272C355.377 116.33 355.499 116.423 355.59 116.543C355.68 116.663 355.738 116.806 355.755 116.955C355.773 117.105 355.75 117.256 355.69 117.394Z" fill="white"/>
</g>
<defs>
<clipPath id="clip0_2046_410">
<rect width="395" height="246" fill="white"/>
</clipPath>
</defs>
</svg>
