<svg width="498" height="515" viewBox="0 0 498 515" fill="none" xmlns="http://www.w3.org/2000/svg">
<path d="M494.803 42.9341C493.094 40.8455 490.805 39.219 488.177 38.2253C485.549 37.2317 482.679 36.9076 479.869 37.2869C426.493 44.4827 376.698 65.8298 332.674 99.9804C331.564 96.4167 330.215 92.92 328.633 89.5108C325.907 83.3039 323.088 76.8859 324.423 72.3126C325.454 68.7828 330.804 64.8843 335.98 61.1145C342.397 56.4391 349.67 51.1398 352.958 43.7376C355.895 37.1279 354.797 29.5506 353.734 22.2234C353.103 18.628 352.763 14.9944 352.715 11.3526C352.762 9.32559 352.204 7.32555 351.1 5.57078C349.997 3.81601 348.391 2.37394 346.458 1.40198C344.511 0.409139 342.305 -0.0724876 340.08 0.00962188C337.856 0.0917313 335.699 0.734424 333.844 1.86762C294.546 25.8447 265.694 61.6838 248.982 106.804C232.27 61.6921 203.445 25.8413 164.154 1.86762C162.299 0.733886 160.141 0.0909388 157.916 0.00895583C155.691 -0.0730272 153.485 0.409099 151.538 1.40272C149.605 2.37486 147.999 3.81688 146.896 5.57147C145.793 7.32606 145.235 9.32583 145.282 11.3526C145.233 14.9944 144.892 18.6279 144.262 22.2234C143.2 29.5504 142.101 37.1264 145.038 43.7361C148.326 51.1391 155.601 56.4384 162.018 61.1145C167.193 64.8843 172.544 68.7821 173.575 72.3118C174.91 76.8851 172.091 83.3039 169.365 89.5108C167.783 92.9198 166.433 96.4163 165.323 99.98C121.299 65.829 71.5031 44.482 18.1279 37.2862C15.3182 36.9088 12.4499 37.2335 9.82331 38.2263C7.19669 39.2192 4.9083 40.8437 3.1976 42.9298C1.48691 45.016 0.416819 47.487 0.099336 50.0844C-0.218147 52.6818 0.22864 55.3099 1.39295 57.6938C3.27451 61.7654 4.93214 65.9216 6.35954 70.1467C9.76113 79.6209 13.2779 89.4175 20.7755 95.6049C29.2515 102.599 40.9836 104.988 52.328 107.298C62.2195 109.313 71.562 111.215 75.8183 115.733C81.1557 121.399 81.8989 131.497 82.6178 141.263C83.3373 151.04 84.0819 161.151 89.4596 168.699C95.8677 177.689 107.112 183.158 117.033 187.984C125.816 192.257 134.112 196.293 136.717 201.381C140.689 209.141 138.149 219.637 135.693 229.787C134.395 234.628 133.449 239.544 132.861 244.5L117.35 244.5C115.43 244.5 113.588 245.202 112.231 246.452C110.873 247.702 110.11 249.397 110.11 251.165L110.11 278.512C110.092 331.361 119.454 383.858 137.826 433.928L147.585 460.552L135.113 460.552C133.192 460.552 131.351 461.254 129.993 462.504C128.635 463.754 127.872 465.449 127.872 467.216L127.872 508.335C127.872 510.103 128.635 511.798 129.993 513.048C131.351 514.298 133.192 515 135.113 515L362.885 515C364.805 515 366.647 514.298 368.005 513.048C369.363 511.798 370.125 510.103 370.125 508.335L370.125 467.217C370.125 465.449 369.363 463.754 368.005 462.504C366.647 461.254 364.805 460.552 362.885 460.552L350.414 460.552L360.173 433.928C378.545 383.858 387.906 331.361 387.888 278.512L387.888 251.165C387.888 249.398 387.125 247.702 385.767 246.453C384.41 245.203 382.568 244.501 380.648 244.501L365.138 244.501C364.55 239.544 363.604 234.629 362.306 229.788C359.85 219.637 357.31 209.142 361.282 201.381C363.887 196.293 372.183 192.257 380.966 187.984C390.886 183.158 402.13 177.689 408.539 168.698C413.917 161.151 414.662 151.041 415.38 141.263C416.1 131.497 416.841 121.4 422.179 115.734C426.435 111.215 435.778 109.313 445.67 107.299C457.016 104.988 468.747 102.6 477.221 95.6052C484.719 89.4178 488.237 79.6205 491.637 70.1461C493.065 65.9217 494.723 61.766 496.604 57.6947C497.77 55.312 498.218 52.6843 497.901 50.0872C497.584 47.4902 496.514 45.0194 494.803 42.9341ZM338.338 15.169C338.534 18.1375 338.963 21.0961 339.381 23.9865C340.192 29.5823 341.031 35.3691 339.556 38.692C337.706 42.8581 332.259 46.8261 326.992 50.6625C319.972 55.7774 312.713 61.0666 310.44 68.853C307.844 77.7392 311.756 86.6471 315.207 94.5065C317.463 99.6445 319.796 104.958 319.312 108.393C319.128 109.548 318.791 110.678 318.31 111.758C299.531 128.115 282.493 146.087 267.428 165.427C260.683 174.024 254.562 182.513 249.005 190.736C248.45 189.914 247.862 189.078 247.295 188.251C247.986 175.273 249.563 162.348 252.017 149.553C263.636 89.5485 292.666 44.3602 338.338 15.169ZM178.684 108.393C178.201 104.958 180.534 99.6453 182.79 94.5071C186.241 86.6478 190.154 77.74 187.559 68.853C185.285 61.0666 178.025 55.7774 171.004 50.6625C165.738 46.8266 160.292 42.8574 158.441 38.692C156.966 35.3699 157.804 29.5836 158.615 23.9865C159.034 21.0961 159.463 18.1375 159.659 15.1675C200.355 41.1804 227.83 79.9137 241.554 130.507C240.132 135.966 238.868 141.535 237.761 147.214C236.216 155.19 235.084 162.894 234.258 170.221C233.042 168.626 231.827 167.03 230.569 165.427C215.504 146.086 198.466 128.115 179.687 111.758C179.205 110.678 178.869 109.548 178.684 108.393ZM149.816 195.7C145.15 186.586 134.295 181.306 123.798 176.2C115.013 171.927 105.929 167.507 101.567 161.387C98.2713 156.763 97.6852 148.796 97.0646 140.362C96.2256 128.963 95.275 116.043 86.7582 107.002C79.3656 99.1531 67.2107 96.6779 55.4556 94.2841C45.9341 92.3454 36.0888 90.3401 30.4419 85.6807C25.8169 81.8638 23.0446 74.1412 20.1096 65.9644C18.5303 61.2987 16.69 56.7112 14.5961 52.2204C14.4984 52.0163 14.4618 51.7919 14.4899 51.5704C14.5181 51.3489 14.61 51.1383 14.7562 50.9604C14.9024 50.7826 15.0975 50.6439 15.3214 50.5588C15.5453 50.4737 15.7899 50.4451 16.0298 50.4762C59.3538 56.3163 100.071 71.7596 137.05 96.376C166.79 116.173 194.222 141.926 218.584 172.917C236.165 195.426 251.434 219.39 264.195 244.501L147.421 244.501C148 240.527 148.803 236.584 149.826 232.686C152.673 220.921 155.9 207.586 149.816 195.7ZM355.646 501.671L142.352 501.671L142.352 473.881L355.645 473.881L355.646 501.671ZM373.408 278.512C373.426 329.912 364.321 380.969 346.454 429.666L335.132 460.552L162.866 460.552L151.545 429.667C133.676 380.97 124.571 329.912 124.589 278.512L124.589 257.83L373.408 257.83L373.408 278.512ZM483.403 52.2199C481.308 56.7106 479.468 61.2981 477.889 65.964C474.954 74.1408 472.181 81.8633 467.555 85.681C461.908 90.3403 452.063 92.3457 442.542 94.2844C430.787 96.6782 418.633 99.1534 411.24 107.001C402.722 116.043 401.772 128.963 400.933 140.362C400.314 148.796 399.728 156.763 396.431 161.387C392.068 167.508 382.985 171.926 374.2 176.2C363.703 181.306 352.849 186.587 348.184 195.701C342.098 207.587 345.326 220.921 348.173 232.686C349.196 236.583 349.999 240.527 350.577 244.501L280.208 244.501C274.643 233.152 267.123 219.118 257.425 203.668C263.879 193.753 271.182 183.389 279.413 172.916C303.776 141.925 331.206 116.172 360.946 96.3753C397.927 71.7588 438.643 56.3156 481.968 50.4754C482.208 50.4444 482.452 50.4729 482.676 50.558C482.9 50.6431 483.095 50.7818 483.242 50.9596C483.388 51.1374 483.48 51.348 483.508 51.5695C483.536 51.791 483.5 52.0158 483.403 52.2199Z" fill="white" fill-opacity="0.1"/>
</svg>
