<svg width="441" height="313" viewBox="0 0 441 313" fill="none" xmlns="http://www.w3.org/2000/svg">
<g opacity="0.2" clip-path="url(#clip0_2046_407)">
<path d="M346.28 148.612C346.229 147.631 345.854 146.696 345.214 145.952C344.573 145.209 343.703 144.701 342.742 144.508C334.641 142.941 326.396 142.238 318.147 142.41C318.033 142.425 317.917 142.417 317.806 142.387C317.695 142.357 317.592 142.304 317.501 142.233C317.411 142.162 317.335 142.074 317.279 141.973C317.223 141.873 317.188 141.762 317.175 141.648C317.14 141.544 317.126 141.435 317.134 141.326C317.143 141.217 317.173 141.111 317.224 141.014C317.274 140.917 317.344 140.831 317.429 140.762C317.513 140.693 317.611 140.642 317.716 140.612C324.752 137.497 332.127 135.215 339.691 133.813C340.289 133.706 340.858 133.477 341.363 133.141C341.868 132.804 342.298 132.366 342.627 131.855C342.955 131.344 343.175 130.771 343.272 130.171C343.369 129.571 343.341 128.958 343.19 128.369C340.279 117.005 335.509 106.201 329.073 96.3961C328.993 96.274 328.907 96.1551 328.815 96.0416L327.437 94.336C326.922 93.6981 326.239 93.2165 325.466 92.9453C324.692 92.674 323.859 92.6239 323.058 92.8005C311.828 95.4106 300.995 99.5065 290.844 104.98C290.474 105.21 290.03 105.29 289.603 105.204C289.175 105.118 288.796 104.874 288.542 104.519C288.253 104.211 288.093 103.802 288.097 103.379C288.101 102.956 288.268 102.55 288.563 102.247C295.01 94.2953 302.51 87.2606 310.856 81.3372C311.354 80.9909 311.775 80.5456 312.093 80.0291C312.412 79.5125 312.62 78.9358 312.706 78.335C312.791 77.7342 312.752 77.1221 312.591 76.537C312.43 75.952 312.15 75.4064 311.769 74.9345L309.954 72.6886C304.761 66.0443 298.31 60.4912 290.969 56.3473C283.629 52.2034 275.544 49.5503 267.178 48.5398C262.851 47.9823 258.454 48.4111 254.316 49.794C250.178 51.177 246.406 53.4783 243.281 56.5262C240.156 59.574 237.76 63.2895 236.271 67.395C234.782 71.5004 234.239 75.8898 234.682 80.2349L235.563 90.0239C235.671 91.2276 235.517 92.4405 235.112 93.579C234.706 94.7174 234.059 95.7543 233.215 96.618C232.371 97.4818 231.349 98.1518 230.221 98.582C229.093 99.0122 227.885 99.1922 226.681 99.1097L216.887 98.4395C212.538 98.0893 208.167 98.7276 204.1 100.307C200.032 101.886 196.374 104.365 193.398 107.558C190.422 110.752 188.205 114.578 186.913 118.749C185.622 122.921 185.288 127.332 185.938 131.651C187.124 139.993 189.941 148.02 194.228 155.271C198.515 162.522 204.189 168.856 210.923 173.91L213.257 175.716C213.79 176.123 214.409 176.402 215.066 176.533C211.682 212.891 210.88 259.687 212.672 316.33H185.616C190.241 271.059 188.276 239.08 183.255 216.491C187.494 207.293 189.461 197.209 188.992 187.09C188.836 182.725 187.697 178.452 185.659 174.59C183.622 170.728 180.739 167.376 177.226 164.787C173.713 162.197 169.661 160.435 165.373 159.634C161.085 158.832 156.671 159.011 152.461 160.158L142.958 162.623C141.79 162.926 140.57 162.972 139.382 162.757C138.194 162.542 137.067 162.072 136.078 161.379C135.089 160.685 134.262 159.786 133.654 158.742C133.047 157.698 132.672 156.534 132.557 155.331L131.62 145.547C131.257 141.194 129.915 136.98 127.696 133.22C125.477 129.459 122.438 126.249 118.805 123.83C115.173 121.411 111.042 119.845 106.72 119.249C102.398 118.653 97.998 119.043 93.8479 120.389C85.8205 122.92 78.3705 127.012 71.924 132.429C65.4776 137.846 60.1612 144.482 56.2791 151.959L54.8784 154.558C54.5906 155.092 54.4159 155.68 54.3652 156.285C54.3144 156.889 54.3888 157.498 54.5836 158.073C54.7784 158.648 55.0895 159.176 55.4973 159.625C55.9052 160.074 56.4012 160.434 56.9543 160.683C66.2467 164.965 74.9129 170.496 82.7137 177.121C83.0594 177.365 83.2979 177.733 83.3794 178.148C83.461 178.564 83.3794 178.994 83.1515 179.351C82.9678 179.747 82.6404 180.058 82.236 180.221C81.8316 180.384 81.3803 180.387 80.9739 180.229C69.9899 176.722 58.5884 174.694 47.07 174.2C46.2516 174.179 45.4433 174.384 44.7337 174.793C44.0242 175.202 43.441 175.799 43.0481 176.518L42.0083 178.448C41.939 178.577 41.8762 178.709 41.8202 178.844C37.2987 189.668 34.5982 201.167 33.828 212.874C33.7882 213.48 33.8739 214.088 34.0796 214.66C34.2853 215.232 34.6067 215.755 35.0236 216.197C35.4406 216.638 35.9441 216.989 36.5026 217.227C37.0612 217.465 37.6628 217.584 38.2697 217.579C45.9624 217.564 53.6305 218.447 61.1193 220.208C61.228 220.218 61.3335 220.251 61.4294 220.303C61.5253 220.355 61.6096 220.426 61.6772 220.512C61.7448 220.598 61.7942 220.697 61.8225 220.802C61.8508 220.908 61.8574 221.018 61.8418 221.126C61.8509 221.241 61.8369 221.357 61.8005 221.466C61.7642 221.576 61.7063 221.676 61.6303 221.763C61.5544 221.85 61.4618 221.92 61.3581 221.97C61.2545 222.02 61.1418 222.049 61.0269 222.055C52.8877 223.411 44.9142 225.623 37.2389 228.654C36.3296 229.021 35.5683 229.681 35.0754 230.53C34.5825 231.378 34.3861 232.367 34.5172 233.34C34.9778 236.757 35.5833 240.057 36.3168 243.147L44.522 277.685C45.1786 280.444 46.7442 282.902 48.9663 284.661C51.1885 286.42 53.9376 287.378 56.7704 287.381C57.2588 287.381 57.7467 287.353 58.2318 287.297L93.4539 283.203C96.604 282.837 99.9082 282.278 103.273 281.543C104.231 281.333 105.092 280.81 105.72 280.056C106.348 279.302 106.707 278.36 106.74 277.379C106.961 269.121 106.31 260.863 104.799 252.741C104.765 252.631 104.753 252.516 104.765 252.401C104.776 252.286 104.811 252.175 104.866 252.074C104.921 251.973 104.996 251.884 105.086 251.812C105.176 251.741 105.28 251.688 105.391 251.657C105.487 251.606 105.593 251.574 105.702 251.565C105.811 251.555 105.92 251.568 106.024 251.602C106.128 251.636 106.223 251.691 106.305 251.764C106.387 251.836 106.453 251.924 106.5 252.023C110.717 258.465 114.168 265.378 116.783 272.622C116.986 273.195 117.304 273.72 117.718 274.164C118.132 274.608 118.634 274.962 119.191 275.203C119.748 275.444 120.349 275.568 120.956 275.566C121.562 275.564 122.162 275.436 122.718 275.191C133.442 270.463 143.311 263.989 151.924 256.033C152.031 255.934 152.134 255.83 152.231 255.72L153.687 254.081C154.232 253.468 154.595 252.715 154.736 251.907C154.877 251.099 154.791 250.267 154.486 249.506C150.083 238.838 144.281 228.804 137.233 219.669C136.946 219.341 136.795 218.915 136.809 218.479C136.824 218.043 137.004 217.629 137.312 217.32C137.568 216.984 137.945 216.76 138.363 216.694C138.78 216.629 139.207 216.728 139.554 216.97C148.441 222.042 156.596 228.304 163.793 235.583C164.215 236.018 164.723 236.361 165.283 236.592C165.844 236.822 166.447 236.934 167.053 236.921C167.659 236.907 168.256 236.769 168.806 236.515C169.356 236.26 169.848 235.895 170.251 235.441L172.169 233.283C173.736 231.563 175.209 229.76 176.581 227.881C180.007 248.921 180.853 277.502 176.782 316.33H121.608C120.946 316.33 120.293 316.479 119.697 316.766C119.1 317.053 118.576 317.471 118.163 317.989C117.75 318.506 117.458 319.11 117.31 319.756C117.161 320.401 117.16 321.072 117.306 321.718L142.645 434.088C143.898 439.762 147.054 444.835 151.588 448.463C156.121 452.092 161.759 454.057 167.563 454.032H228.323C234.127 454.057 239.765 452.092 244.298 448.463C248.832 444.835 251.988 439.761 253.242 434.087L278.581 321.718C278.727 321.071 278.725 320.401 278.577 319.755C278.429 319.109 278.137 318.505 277.724 317.988C277.311 317.47 276.787 317.053 276.19 316.766C275.594 316.479 274.941 316.33 274.279 316.33H221.499C219.3 247.028 221.229 199.781 224.825 167.58C229.404 161.899 234.493 156.65 240.028 151.898C240.325 151.597 240.726 151.422 241.149 151.409C241.571 151.396 241.982 151.547 242.297 151.83C242.656 152.076 242.909 152.45 243.004 152.876C243.099 153.302 243.028 153.748 242.807 154.124C237.559 164.402 233.703 175.335 231.339 186.633C231.18 187.438 231.247 188.271 231.535 189.039C231.822 189.808 232.318 190.481 232.966 190.983L234.699 192.325C234.815 192.414 234.935 192.497 235.058 192.575C244.988 198.806 255.879 203.348 267.29 206.018C267.881 206.156 268.494 206.17 269.091 206.06C269.688 205.95 270.255 205.718 270.758 205.378C271.262 205.038 271.689 204.598 272.015 204.085C272.34 203.572 272.556 202.997 272.65 202.397C273.887 194.795 276.007 187.364 278.967 180.255C278.995 180.149 279.044 180.05 279.111 179.964C279.178 179.878 279.262 179.807 279.357 179.754C279.453 179.701 279.558 179.668 279.667 179.657C279.775 179.646 279.885 179.658 279.989 179.691C280.104 179.7 280.215 179.733 280.317 179.787C280.419 179.84 280.509 179.914 280.582 180.003C280.655 180.092 280.709 180.195 280.742 180.306C280.774 180.416 280.784 180.532 280.771 180.647C280.78 188.908 281.66 197.145 283.397 205.221C283.61 206.179 284.136 207.038 284.892 207.664C285.648 208.289 286.59 208.644 287.57 208.674C288.656 208.706 289.731 208.722 290.796 208.722C293.106 208.722 295.36 208.646 297.528 208.495L332.9 206.02C335.977 205.804 338.868 204.465 341.025 202.258C343.183 200.051 344.457 197.128 344.607 194.044L346.315 158.584C346.468 155.41 346.456 152.055 346.28 148.612ZM166.741 226.104C159.815 219.67 152.182 214.045 143.988 209.335C141.882 208.056 139.39 207.567 136.958 207.957C134.525 208.347 132.31 209.59 130.709 211.465C129.058 213.305 128.102 215.667 128.01 218.14C127.917 220.612 128.692 223.039 130.201 224.999C136.185 232.775 141.227 241.236 145.22 250.202C138.647 256.153 131.293 261.178 123.362 265.138C120.761 258.892 117.596 252.898 113.907 247.228C112.68 245.331 110.834 243.918 108.683 243.231C106.533 242.544 104.211 242.624 102.113 243.459C100.015 244.293 98.2706 245.831 97.1776 247.808C96.0847 249.786 95.7104 252.082 96.1186 254.305C97.2921 260.671 97.9136 267.127 97.9762 273.6C96.0836 273.944 94.2303 274.223 92.4364 274.431L57.2151 278.524C56.296 278.631 55.3695 278.397 54.6114 277.865C53.8534 277.334 53.3166 276.542 53.1028 275.641L44.8977 241.104C44.48 239.345 44.1072 237.506 43.7837 235.608C49.8804 233.452 56.1519 231.829 62.5281 230.756C64.7541 230.38 66.7809 229.242 68.2632 227.538C69.7455 225.833 70.5917 223.667 70.6576 221.407C70.7234 219.148 70.0049 216.936 68.6245 215.148C67.244 213.359 65.287 212.105 63.0867 211.6C56.5038 210.067 49.795 209.14 43.0437 208.829C44.0477 200.013 46.2486 191.376 49.5855 183.156C59.3663 183.847 69.0307 185.697 78.3763 188.667C80.7313 189.417 83.2743 189.317 85.5632 188.384C87.8521 187.451 89.7422 185.745 90.9048 183.562C92.1167 181.414 92.5263 178.904 92.0604 176.482C91.5946 174.06 90.2837 171.882 88.3619 170.339C81.139 164.24 73.2482 158.983 64.8409 154.667C71.6877 142.325 82.997 133.078 96.4436 128.829C99.3423 127.868 102.421 127.58 105.448 127.987C108.474 128.393 111.368 129.484 113.911 131.176C116.454 132.868 118.58 135.116 120.127 137.752C121.674 140.388 122.602 143.341 122.841 146.389L123.777 156.173C124.122 159.734 125.57 163.098 127.919 165.794C127.523 166.074 127.176 166.419 126.893 166.814L75.9071 239.718C75.5696 240.193 75.3293 240.73 75.2 241.298C75.0707 241.866 75.055 242.454 75.1539 243.029C75.2527 243.603 75.4641 244.152 75.7758 244.644C76.0876 245.136 76.4936 245.561 76.9703 245.895C77.4471 246.23 77.9852 246.466 78.5536 246.591C79.1221 246.716 79.7096 246.727 80.2824 246.624C80.8552 246.521 81.4018 246.305 81.8908 245.989C82.3799 245.673 82.8016 245.263 83.1317 244.783L134.118 171.879C134.392 171.478 134.597 171.034 134.725 170.565C138.059 171.854 141.711 172.066 145.171 171.171L154.674 168.705C157.616 167.888 160.705 167.751 163.708 168.305C166.711 168.859 169.548 170.09 172.006 171.904C174.464 173.718 176.477 176.068 177.894 178.776C179.31 181.484 180.093 184.479 180.184 187.534C180.791 201.639 175.98 215.44 166.741 226.104ZM244.637 432.142C243.817 435.857 241.75 439.179 238.782 441.555C235.814 443.93 232.123 445.217 228.323 445.201H167.563C163.763 445.217 160.072 443.93 157.104 441.555C154.135 439.179 152.069 435.857 151.248 432.142L127.125 325.16H268.762L244.637 432.142ZM337.505 158.158L335.797 193.618C335.752 194.543 335.37 195.42 334.723 196.082C334.075 196.744 333.208 197.145 332.285 197.21L296.914 199.685C295.111 199.811 293.238 199.879 291.316 199.889C290.185 193.515 289.608 187.055 289.591 180.582C289.594 178.311 288.802 176.111 287.353 174.364C285.904 172.617 283.89 171.434 281.66 171.019C281.034 170.898 280.398 170.836 279.761 170.836C277.832 170.835 275.948 171.413 274.351 172.495C272.754 173.578 271.518 175.115 270.803 176.908C268.221 183.161 266.213 189.637 264.806 196.255C256.283 193.826 248.13 190.244 240.574 185.608C242.849 176.059 246.248 166.813 250.699 158.066C251.821 155.861 252.136 153.333 251.59 150.92C251.044 148.507 249.671 146.362 247.709 144.857C245.79 143.31 243.384 142.496 240.921 142.561C238.458 142.627 236.099 143.567 234.265 145.214C227.077 151.354 220.61 158.292 214.987 165.894C203.941 157.119 196.673 144.439 194.677 130.464C194.203 127.444 194.421 124.355 195.316 121.432C196.21 118.509 197.756 115.827 199.838 113.591C201.92 111.354 204.483 109.621 207.332 108.523C210.182 107.424 213.244 106.989 216.286 107.25L226.08 107.92C229.645 108.161 233.196 107.279 236.236 105.398C236.448 105.835 236.731 106.234 237.074 106.577L300.604 168.828C301.44 169.647 302.566 170.1 303.736 170.087C304.906 170.075 306.022 169.597 306.84 168.761C307.658 167.924 308.111 166.795 308.098 165.624C308.086 164.453 307.609 163.336 306.773 162.516L243.243 100.266C242.893 99.93 242.489 99.6549 242.048 99.4521C243.86 96.369 244.665 92.7954 244.348 89.2318L243.467 79.4429C243.141 76.4033 243.51 73.3293 244.545 70.4534C245.581 67.5775 247.256 64.9751 249.445 62.8432C251.633 60.7112 254.277 59.1055 257.177 58.1475C260.076 57.1896 263.156 56.9045 266.181 57.3138C280.178 59.0135 292.994 66.015 301.996 76.8801C294.527 82.673 287.739 89.2961 281.763 96.6223C280.158 98.494 279.27 100.876 279.258 103.343C279.246 105.809 280.11 108.2 281.696 110.087C283.241 112.019 285.413 113.347 287.834 113.842C290.256 114.337 292.774 113.966 294.951 112.795C303.59 108.152 312.748 104.551 322.235 102.068C327.027 109.531 330.779 117.614 333.389 126.093C326.81 127.644 320.387 129.794 314.199 132.514C312.129 133.417 310.436 135.01 309.408 137.022C308.38 139.035 308.081 141.342 308.562 143.55C309.042 145.759 310.273 147.732 312.043 149.134C313.814 150.536 316.016 151.28 318.273 151.24C324.737 151.117 331.2 151.556 337.589 152.55C337.62 154.475 337.592 156.351 337.505 158.158Z" fill="white"/>
</g>
<defs>
<clipPath id="clip0_2046_407">
<rect width="441" height="313" fill="white"/>
</clipPath>
</defs>
</svg>
