<svg width="524" height="628" viewBox="0 0 524 628" fill="none" xmlns="http://www.w3.org/2000/svg">
<path d="M523.762 155.261C523.678 153.743 523.049 152.295 521.975 151.145C520.901 149.995 519.443 149.209 517.832 148.91C504.252 146.485 490.433 145.396 476.605 145.663C476.414 145.686 476.22 145.673 476.034 145.626C475.848 145.579 475.674 145.499 475.522 145.389C475.37 145.279 475.244 145.142 475.15 144.986C475.056 144.831 474.997 144.659 474.975 144.482C474.917 144.322 474.893 144.152 474.908 143.984C474.922 143.815 474.973 143.651 475.057 143.501C475.142 143.351 475.259 143.219 475.401 143.112C475.543 143.005 475.707 142.926 475.883 142.879C487.676 138.057 500.038 134.525 512.718 132.355C513.72 132.19 514.674 131.836 515.521 131.315C516.367 130.793 517.089 130.116 517.639 129.325C518.19 128.534 518.558 127.647 518.72 126.718C518.883 125.79 518.836 124.84 518.584 123.929C513.704 106.339 505.708 89.6164 494.92 74.4404C494.785 74.2513 494.641 74.0674 494.487 73.8916L492.178 71.2517C491.314 70.2642 490.169 69.5188 488.873 69.099C487.576 68.6792 486.179 68.6016 484.838 68.8749C466.013 72.9149 447.854 79.2547 430.839 87.727C430.218 88.0822 429.474 88.2061 428.757 88.0736C428.041 87.9411 427.406 87.5621 426.98 87.0132C426.495 86.5358 426.228 85.9037 426.234 85.2486C426.241 84.5936 426.52 83.966 427.015 83.4968C437.822 71.1887 450.394 60.3001 464.384 51.1317C465.218 50.5957 465.924 49.9065 466.457 49.1069C466.991 48.3074 467.34 47.4148 467.484 46.4848C467.628 45.5548 467.562 44.6075 467.292 43.7019C467.022 42.7963 466.553 41.9519 465.914 41.2215L462.872 37.7451C454.167 27.4609 443.353 18.8656 431.048 12.4516C418.744 6.03764 405.192 1.931 391.168 0.366942C383.915 -0.495937 376.546 0.167696 369.609 2.30826C362.673 4.44881 356.349 8.01094 351.111 12.7285C345.873 17.446 341.856 23.1969 339.36 29.5515C336.864 35.9061 335.954 42.7 336.697 49.4256L338.173 64.5772C338.354 66.4404 338.097 68.3178 337.417 70.0799C336.738 71.842 335.653 73.4469 334.238 74.7838C332.822 76.1207 331.11 77.1579 329.219 77.8237C327.328 78.4896 325.304 78.7682 323.285 78.6405L306.867 77.6031C299.578 77.0612 292.251 78.0491 285.433 80.4932C278.615 82.9373 272.483 86.7742 267.494 91.7174C262.506 96.6605 258.79 102.582 256.625 109.039C254.46 115.497 253.901 122.323 254.99 129.008C256.978 141.921 261.7 154.345 268.886 165.569C276.073 176.792 285.583 186.596 296.872 194.418L300.783 197.215C301.676 197.844 302.714 198.276 303.816 198.478C298.144 254.755 296.798 327.186 299.803 414.86H254.45C262.203 344.789 258.909 295.291 250.493 260.326C257.597 246.089 260.895 230.482 260.109 214.819C259.848 208.063 257.938 201.449 254.523 195.471C251.108 189.493 246.275 184.306 240.387 180.297C234.498 176.288 227.706 173.562 220.518 172.321C213.329 171.081 205.931 171.358 198.874 173.132L182.945 176.949C180.987 177.418 178.941 177.488 176.95 177.156C174.959 176.823 173.069 176.095 171.412 175.022C169.755 173.949 168.369 172.557 167.35 170.941C166.331 169.324 165.703 167.523 165.51 165.661L163.94 150.517C163.33 143.78 161.082 137.257 157.362 131.437C153.642 125.616 148.548 120.648 142.459 116.903C136.371 113.159 129.445 110.735 122.201 109.813C114.957 108.89 107.581 109.494 100.624 111.577C87.1682 115.495 74.6801 121.828 63.8742 130.213C53.0684 138.597 44.1568 148.87 37.6494 160.442L35.3016 164.465C34.8192 165.292 34.5263 166.201 34.4413 167.138C34.3562 168.074 34.4809 169.016 34.8074 169.906C35.1339 170.795 35.6553 171.613 36.339 172.308C37.0228 173.003 37.8541 173.56 38.7812 173.945C54.3577 180.573 68.8844 189.134 81.9604 199.389C82.5399 199.766 82.9396 200.336 83.0764 200.979C83.2131 201.622 83.0762 202.288 82.6943 202.84C82.3863 203.453 81.8376 203.934 81.1597 204.187C80.4817 204.439 79.7253 204.443 79.044 204.199C60.6322 198.77 41.5205 195.632 22.2127 194.868C20.8409 194.835 19.4859 195.153 18.2966 195.785C17.1072 196.418 16.1296 197.342 15.471 198.455L13.7281 201.443C13.6119 201.642 13.5066 201.846 13.4128 202.055C5.83366 218.809 1.30683 236.607 0.0159212 254.728C-0.0508208 255.667 0.0927285 256.608 0.437581 257.493C0.782433 258.378 1.32116 259.187 2.02005 259.871C2.71893 260.555 3.56292 261.097 4.49919 261.466C5.43546 261.834 6.44385 262.019 7.46123 262.01C20.356 261.988 33.2098 263.354 45.7628 266.081C45.945 266.096 46.1219 266.146 46.2827 266.227C46.4434 266.308 46.5847 266.418 46.698 266.551C46.8113 266.684 46.8942 266.836 46.9416 267C46.989 267.163 47.0001 267.334 46.974 267.501C46.9892 267.679 46.9656 267.858 46.9047 268.027C46.8439 268.197 46.7469 268.353 46.6195 268.487C46.4921 268.621 46.3369 268.73 46.1632 268.808C45.9894 268.885 45.8006 268.93 45.6079 268.939C31.9646 271.037 18.5991 274.461 5.73342 279.153C4.20914 279.721 2.93305 280.743 2.10682 282.056C1.28059 283.37 0.951345 284.9 1.17109 286.406C1.94317 291.695 2.9582 296.803 4.18777 301.586L17.9416 355.045C19.0423 359.316 21.6666 363.119 25.3915 365.842C29.1163 368.564 33.7246 370.048 38.4731 370.053C39.2916 370.052 40.1095 370.009 40.9227 369.922L99.9636 363.586C105.244 363.019 110.783 362.155 116.424 361.015C118.029 360.691 119.472 359.882 120.525 358.715C121.577 357.548 122.179 356.09 122.235 354.571C122.605 341.789 121.514 329.007 118.98 316.436C118.923 316.266 118.904 316.087 118.923 315.909C118.943 315.732 119 315.56 119.093 315.403C119.186 315.247 119.311 315.109 119.462 314.998C119.614 314.887 119.787 314.806 119.973 314.758C120.134 314.678 120.312 314.629 120.494 314.615C120.677 314.6 120.86 314.62 121.034 314.673C121.208 314.726 121.369 314.811 121.506 314.923C121.643 315.035 121.754 315.172 121.832 315.325C128.901 325.296 134.686 335.996 139.07 347.207C139.409 348.094 139.942 348.907 140.637 349.594C141.331 350.282 142.171 350.829 143.105 351.202C144.039 351.576 145.046 351.767 146.063 351.764C147.081 351.761 148.086 351.564 149.017 351.185C166.994 343.866 183.536 333.846 197.974 321.532C198.154 321.378 198.326 321.216 198.489 321.047L200.929 318.51C201.842 317.561 202.451 316.396 202.688 315.145C202.925 313.894 202.779 312.607 202.269 311.428C194.888 294.915 185.162 279.385 173.348 265.246C172.867 264.738 172.614 264.079 172.638 263.404C172.663 262.729 172.964 262.088 173.48 261.61C173.91 261.09 174.541 260.742 175.242 260.641C175.942 260.54 176.658 260.693 177.239 261.068C192.136 268.919 205.805 278.612 217.869 289.877C218.577 290.551 219.428 291.083 220.368 291.439C221.308 291.796 222.318 291.969 223.333 291.948C224.349 291.928 225.35 291.714 226.272 291.32C227.195 290.926 228.019 290.36 228.695 289.658L231.909 286.317C234.537 283.656 237.006 280.865 239.306 277.956C245.048 310.522 246.466 354.761 239.642 414.861H147.157C146.048 414.861 144.953 415.091 143.953 415.536C142.953 415.98 142.075 416.627 141.382 417.428C140.69 418.229 140.201 419.163 139.952 420.163C139.703 421.162 139.701 422.2 139.945 423.201L182.419 597.13C184.521 605.912 189.811 613.764 197.411 619.38C205.01 624.997 214.46 628.038 224.189 628H326.037C335.767 628.039 345.217 624.997 352.816 619.38C360.416 613.764 365.706 605.911 367.808 597.129L410.283 423.199C410.527 422.199 410.525 421.161 410.276 420.162C410.027 419.162 409.538 418.228 408.846 417.427C408.153 416.626 407.275 415.979 406.275 415.535C405.275 415.09 404.18 414.86 403.071 414.86H314.599C310.913 307.593 314.146 234.462 320.174 184.621C327.849 175.828 336.38 167.703 345.659 160.349C346.156 159.882 346.829 159.611 347.537 159.591C348.245 159.571 348.934 159.805 349.461 160.242C350.064 160.624 350.488 161.203 350.646 161.862C350.805 162.521 350.687 163.212 350.316 163.794C341.52 179.703 335.056 196.624 331.093 214.111C330.826 215.357 330.94 216.647 331.422 217.836C331.904 219.026 332.734 220.067 333.821 220.844L336.725 222.922C336.92 223.06 337.12 223.189 337.328 223.309C353.972 232.954 372.228 239.984 391.356 244.116C392.346 244.33 393.374 244.352 394.375 244.182C395.375 244.011 396.327 243.652 397.17 243.126C398.013 242.6 398.73 241.918 399.276 241.124C399.821 240.331 400.183 239.441 400.34 238.512C402.414 226.745 405.968 215.243 410.929 204.239C410.976 204.076 411.058 203.923 411.171 203.79C411.283 203.656 411.424 203.546 411.584 203.464C411.744 203.382 411.92 203.331 412.102 203.315C412.284 203.298 412.468 203.315 412.643 203.366C412.835 203.381 413.022 203.431 413.193 203.515C413.364 203.598 413.515 203.712 413.637 203.85C413.759 203.988 413.85 204.147 413.905 204.318C413.959 204.489 413.976 204.669 413.954 204.846C413.968 217.633 415.444 230.382 418.355 242.882C418.713 244.365 419.595 245.696 420.862 246.663C422.128 247.631 423.708 248.181 425.351 248.227C427.17 248.276 428.973 248.301 430.758 248.301C434.63 248.301 438.409 248.184 442.042 247.95L501.335 244.12C506.493 243.785 511.339 241.713 514.955 238.297C518.571 234.88 520.707 230.357 520.958 225.582L523.822 170.696C524.078 165.784 524.058 160.591 523.762 155.261ZM222.811 275.206C211.201 265.248 198.406 256.54 184.671 249.251C181.141 247.27 176.964 246.514 172.887 247.117C168.809 247.721 165.097 249.646 162.412 252.547C159.644 255.396 158.043 259.051 157.888 262.878C157.732 266.705 159.031 270.462 161.56 273.495C171.591 285.532 180.043 298.627 186.737 312.505C175.718 321.716 163.391 329.494 150.098 335.624C145.738 325.957 140.432 316.678 134.248 307.902C132.191 304.966 129.097 302.779 125.492 301.716C121.887 300.652 117.994 300.776 114.478 302.068C110.961 303.36 108.038 305.739 106.206 308.8C104.373 311.862 103.746 315.415 104.43 318.856C106.397 328.71 107.439 338.702 107.544 348.722C104.372 349.255 101.265 349.686 98.258 350.008L39.2185 356.343C37.6777 356.509 36.1247 356.146 34.8541 355.324C33.5834 354.501 32.6835 353.276 32.3252 351.881L18.5715 298.423C17.8712 295.7 17.2463 292.854 16.704 289.916C26.9236 286.58 37.4363 284.067 48.1244 282.407C51.8556 281.824 55.253 280.064 57.7377 277.425C60.2225 274.787 61.6409 271.433 61.7513 267.936C61.8618 264.439 60.6574 261.015 58.3434 258.247C56.0294 255.479 52.7489 253.538 49.0607 252.756C38.0261 250.384 26.7804 248.949 15.4636 248.467C17.1466 234.822 20.8358 221.453 26.4293 208.73C42.8243 209.799 59.0243 212.663 74.6898 217.26C78.6374 218.421 82.9001 218.266 86.7369 216.822C90.5737 215.378 93.7419 212.737 95.6907 209.357C97.7221 206.033 98.4087 202.149 97.6278 198.4C96.847 194.65 94.6496 191.28 91.4282 188.891C79.3208 179.452 66.0938 171.314 52.0012 164.633C63.478 145.53 82.4353 131.218 104.975 124.64C109.834 123.153 114.995 122.708 120.068 123.337C125.141 123.967 129.992 125.655 134.255 128.273C138.518 130.892 142.081 134.373 144.674 138.452C147.268 142.532 148.823 147.103 149.223 151.821L150.793 166.965C151.37 172.476 153.798 177.683 157.735 181.856C157.071 182.29 156.49 182.824 156.017 183.435L70.5508 296.278C69.9851 297.013 69.5822 297.844 69.3655 298.724C69.1488 299.603 69.1226 300.513 69.2882 301.402C69.4539 302.291 69.8083 303.141 70.3308 303.902C70.8534 304.664 71.5339 305.323 72.3331 305.84C73.1322 306.357 74.0342 306.723 74.9871 306.917C75.9399 307.11 76.9248 307.127 77.8849 306.967C78.845 306.807 79.7613 306.473 80.5811 305.984C81.4008 305.495 82.1078 304.861 82.6611 304.118L168.127 191.275C168.586 190.654 168.93 189.967 169.144 189.242C174.732 191.236 180.855 191.564 186.655 190.179L202.584 186.363C207.516 185.097 212.694 184.885 217.727 185.743C222.76 186.601 227.517 188.506 231.636 191.313C235.756 194.121 239.131 197.758 241.506 201.95C243.88 206.141 245.193 210.777 245.344 215.507C246.362 237.338 238.299 258.7 222.811 275.206ZM353.385 594.118C352.009 599.868 348.545 605.009 343.57 608.687C338.594 612.364 332.407 614.355 326.037 614.33H224.189C217.819 614.355 211.632 612.364 206.656 608.687C201.681 605.009 198.217 599.868 196.841 594.118L156.404 428.528H393.823L353.385 594.118ZM509.054 170.037L506.191 224.923C506.115 226.355 505.475 227.712 504.39 228.737C503.305 229.762 501.851 230.383 500.304 230.483L441.013 234.313C437.991 234.509 434.852 234.614 431.629 234.63C429.734 224.764 428.767 214.765 428.738 204.745C428.743 201.231 427.415 197.825 424.987 195.121C422.558 192.418 419.181 190.586 415.443 189.944C414.394 189.756 413.328 189.661 412.26 189.66C409.027 189.658 405.869 190.553 403.192 192.229C400.515 193.904 398.444 196.283 397.245 199.059C392.916 208.737 389.551 218.761 387.192 229.005C372.905 225.245 359.239 219.7 346.574 212.525C350.387 197.744 356.084 183.434 363.545 169.895C365.426 166.483 365.955 162.569 365.039 158.834C364.124 155.099 361.822 151.779 358.533 149.45C355.317 147.055 351.284 145.795 347.155 145.896C343.027 145.998 339.072 147.453 335.997 150.002C323.95 159.506 313.109 170.245 303.683 182.011C285.167 168.428 272.984 148.803 269.639 127.171C268.844 122.496 269.21 117.716 270.709 113.191C272.208 108.667 274.8 104.517 278.29 101.055C281.78 97.5933 286.076 94.9108 290.852 93.2105C295.629 91.5102 300.761 90.8365 305.861 91.2406L322.278 92.278C328.254 92.6501 334.206 91.2848 339.301 88.3734C339.657 89.05 340.132 89.6671 340.707 90.1993L447.198 186.553C448.6 187.82 450.488 188.522 452.449 188.502C454.409 188.482 456.281 187.744 457.652 186.448C459.023 185.153 459.782 183.407 459.761 181.594C459.74 179.782 458.94 178.051 457.539 176.783L351.048 80.43C350.46 79.9101 349.783 79.4845 349.043 79.1706C352.082 74.3984 353.43 68.867 352.899 63.3511L351.423 48.1997C350.877 43.4949 351.495 38.7368 353.231 34.2854C354.967 29.8341 357.775 25.806 361.443 22.5061C365.111 19.2062 369.543 16.7208 374.404 15.2381C379.264 13.7553 384.426 13.314 389.498 13.9476C412.96 16.5785 434.442 27.4156 449.532 44.2329C437.012 53.1993 425.634 63.4508 415.616 74.7904C412.926 77.6875 411.438 81.3744 411.418 85.1923C411.397 89.0102 412.846 92.7105 415.504 95.6321C418.094 98.6215 421.734 100.678 425.793 101.444C429.852 102.209 434.073 101.636 437.722 99.8237C452.203 92.6361 467.555 87.0621 483.457 83.2187C491.489 94.7708 497.78 107.282 502.154 120.406C491.127 122.807 480.36 126.134 469.987 130.345C466.518 131.742 463.68 134.208 461.957 137.323C460.234 140.438 459.732 144.009 460.538 147.427C461.343 150.846 463.406 153.9 466.374 156.07C469.342 158.24 473.033 159.392 476.816 159.329C487.652 159.14 498.485 159.818 509.194 161.357C509.247 164.337 509.2 167.241 509.054 170.037Z" fill="white" fill-opacity="0.1"/>
</svg>
